# xmcd
#
# Track frame offsets:
#	150
#	20090
#	28557
#	44020
#	64728
#	82339
#	100759
#	118402
#	135608
#	150625
#	171149
#	185546
#	213322
#	235234
#
# Disc length: 3286 seconds
# Revision: 2
# Processed by: cddbd v1.5.2PL0 Copyright (c) Steve Scherf et al.
# Submitted via: dBpowerAMP V12.0
#
DISCID=c80cd40e
DTITLE=Scott R. Taylor - Friends Along the Trail
DYEAR=2005
DGENRE=Folk
TTITLE0=Cottonwood Snow
TTITLE1=Riding The Sage
TTITLE2=A Feeling You Can't Fence In
TTITLE3=No Telling
TTITLE4=Summerlea
TTITLE5=Ride, Molly, Ride
TTITLE6=A Cowboy's Lullaby
TTITLE7=Only A Cowboy Knows
TTITLE8=Higbee's Cafe'
TTITLE9=Catclaw Rose and Herbert
TTITLE10=The Bounty Hunter
TTITLE11=The Outlaw's Dream
TTITLE12=The Long, Lonesome Trail
TTITLE13=That Kind of Friend
EXTD=
EXTT0=
EXTT1=
EXTT2=
EXTT3=
EXTT4=
EXTT5=
EXTT6=
EXTT7=
EXTT8=
EXTT9=
EXTT10=
EXTT11=
EXTT12=
EXTT13=
PLAYORDER=
